<svg width="81" height="144" viewBox="0 0 81 144" fill="none" xmlns="http://www.w3.org/2000/svg">
<g filter="url(#filter0_d_95_94)">
<path d="M66 37.5001C66 54.3447 52.3447 68.0001 35.5 68.0001C18.6553 68.0001 5 54.3447 5 37.5001C5 20.6554 18.6553 7.00006 35.5 7.00006C52.3447 7.00006 66 20.6554 66 37.5001Z" fill="#838CDB"/>
</g>
<path d="M45.6875 52.875C45.5208 52.875 45.1667 52.8333 44.625 52.75C44.0833 52.6667 43.4375 52.2917 42.6875 51.625C41.9792 50.9167 41.375 50.0417 40.875 49C39.75 46.875 39.1875 44.4375 39.1875 41.6875C39.1875 38.8958 39.6458 36.3958 40.5625 34.1875C41.5208 31.9792 42.6042 30.125 43.8125 28.625C45.0625 27.0833 46.2708 25.9167 47.4375 25.125C48.6458 24.3333 49.4583 23.9375 49.875 23.9375C50.2917 23.9375 50.6458 24.1042 50.9375 24.4375C51.2292 24.7292 51.375 25.0625 51.375 25.4375C51.375 26.3542 51.0208 27.0833 50.3125 27.625C49.6042 28.125 49.0208 28.6875 48.5625 29.3125C48.1042 29.8958 47.6667 30.5625 47.25 31.3125C46.1667 33.1458 45.625 34.9167 45.625 36.625C45.625 38.2917 45.9375 39.6667 46.5625 40.75C47.2292 41.8333 47.9375 42.7292 48.6875 43.4375C49.4792 44.1458 50.1875 44.8125 50.8125 45.4375C51.4792 46.0625 51.8125 46.7708 51.8125 47.5625C51.8125 48.3125 51.7083 48.9792 51.5 49.5625C51.2917 50.1042 50.9583 50.625 50.5 51.125C49.4167 52.2917 48 52.875 46.25 52.875H45.6875ZM27.5625 52.875C27.3958 52.875 27.0417 52.8333 26.5 52.75C25.9583 52.6667 25.3125 52.2917 24.5625 51.625C23.8542 50.9167 23.25 50.0417 22.75 49C21.625 46.875 21.0625 44.4375 21.0625 41.6875C21.0625 38.8958 21.5208 36.3958 22.4375 34.1875C23.3958 31.9792 24.4792 30.125 25.6875 28.625C26.9375 27.0833 28.1458 25.9167 29.3125 25.125C30.5208 24.3333 31.3333 23.9375 31.75 23.9375C32.1667 23.9375 32.5208 24.1042 32.8125 24.4375C33.1042 24.7292 33.25 25.0625 33.25 25.4375C33.25 26.3542 32.8958 27.0833 32.1875 27.625C31.4792 28.125 30.8958 28.6875 30.4375 29.3125C29.9792 29.8958 29.5417 30.5625 29.125 31.3125C28.0417 33.1458 27.5 34.9167 27.5 36.625C27.5 38.2917 27.8125 39.6667 28.4375 40.75C29.1042 41.8333 29.8125 42.7292 30.5625 43.4375C31.3542 44.1458 32.0625 44.8125 32.6875 45.4375C33.3542 46.0625 33.6875 46.7708 33.6875 47.5625C33.6875 48.3125 33.5833 48.9792 33.375 49.5625C33.1667 50.1042 32.8333 50.625 32.375 51.125C31.2917 52.2917 29.875 52.875 28.125 52.875H27.5625Z" fill="white"/>
<defs>
<filter id="filter0_d_95_94" x="0" y="3" width="81" height="81" filterUnits="userSpaceOnUse" color-interpolation-filters="sRGB">
<feFlood flood-opacity="0" result="BackgroundImageFix"/>
<feColorMatrix in="SourceAlpha" type="matrix" values="0 0 0 0 0 0 0 0 0 0 0 0 0 0 0 0 0 0 127 0" result="hardAlpha"/>
<feOffset dx="5" dy="6"/>
<feGaussianBlur stdDeviation="5"/>
<feComposite in2="hardAlpha" operator="out"/>
<feColorMatrix type="matrix" values="0 0 0 0 0.513726 0 0 0 0 0.54902 0 0 0 0 0.858824 0 0 0 1 0"/>
<feBlend mode="normal" in2="BackgroundImageFix" result="effect1_dropShadow_95_94"/>
<feBlend mode="normal" in="SourceGraphic" in2="effect1_dropShadow_95_94" result="shape"/>
</filter>
</defs>
</svg>
